<svg id="Layer_1" viewBox="0 0 48 48" xmlns="http://www.w3.org/2000/svg" xmlns:xlink="http://www.w3.org/1999/xlink" data-name="Layer 1"><linearGradient id="linear-gradient" gradientUnits="userSpaceOnUse" x1="6.109" x2="41.362" y1="14.187" y2="43.768"><stop offset="0" stop-color="#3e4154"/><stop offset="1" stop-color="#1b2129"/></linearGradient><linearGradient id="linear-gradient-2" x1="24" x2="24" xlink:href="#linear-gradient" y1="15.319" y2="22.754"/><linearGradient id="linear-gradient-3" gradientUnits="userSpaceOnUse" x1="16" x2="16" y1="15.34" y2="21.583"><stop offset="0" stop-color="#f0f2f2"/><stop offset=".186" stop-color="#eaecec"/><stop offset=".429" stop-color="#d9ddde"/><stop offset=".6" stop-color="#cacfd0"/><stop offset="1" stop-color="#abb0b1"/></linearGradient><linearGradient id="linear-gradient-4" x1="32" x2="32" xlink:href="#linear-gradient-3" y1="15.34" y2="21.583"/><linearGradient id="linear-gradient-5" x1="16.455" x2="33.199" xlink:href="#linear-gradient-3" y1="21.669" y2="35.719"/><linearGradient id="linear-gradient-6" x1="14.352" x2="31.096" xlink:href="#linear-gradient-3" y1="27.904" y2="41.954"/><linearGradient id="linear-gradient-7" x1="22.678" x2="23.837" xlink:href="#linear-gradient" y1="5.838" y2="12.413"/><linearGradient id="linear-gradient-8" x1="14.91" x2="16.131" xlink:href="#linear-gradient-3" y1="7.859" y2="14.78"/><linearGradient id="linear-gradient-9" x1="30.605" x2="31.825" xlink:href="#linear-gradient-3" y1="4.727" y2="11.648"/><path d="m42 15h-37v26c0 2.209 1.791 4 4 4h30c2.209 0 4-1.791 4-4v-25c0-.552-.448-1-1-1z" fill="url(#linear-gradient)"/><path d="m42 15h-37v6h38v-5c0-.552-.448-1-1-1z" fill="url(#linear-gradient-2)"/><path d="m21.5 15-3 6h-8l3-6z" fill="url(#linear-gradient-3)"/><path d="m37.5 15-3 6h-8l3-6z" fill="url(#linear-gradient-4)"/><path d="m35 29h-22c-.552 0-1-.448-1-1s.448-1 1-1h22c.552 0 1 .448 1 1s-.448 1-1 1z" fill="url(#linear-gradient-5)"/><path d="m35 37h-22c-.552 0-1-.448-1-1s.448-1 1-1h22c.552 0 1 .448 1 1s-.448 1-1 1z" fill="url(#linear-gradient-6)"/><path d="m5 15 36.438-6.425c.544-.096.907-.615.811-1.158l-.521-2.954c-.192-1.088-1.229-1.814-2.317-1.622l-33.483 5.903c-1.088.192-1.814 1.229-1.622 2.317l.695 3.939z" fill="url(#linear-gradient-7)"/><path d="m20.207 6.226-1.912 6.43-7.879 1.389 1.913-6.43z" fill="url(#linear-gradient-8)"/><path d="m35.964 3.448-1.912 6.429-7.879 1.39 1.913-6.43z" fill="url(#linear-gradient-9)"/></svg>